cover
 
http://img257.imageshack.us/img257/1789/d5865899470ce8458e9849a.png

Genre:Comedy | Drama | Romance
Language:English
IMDb:http://www.imdb.com/title/tt1586740/
Source:DVD

General
Complete name :Double.Wedding.2010.DvDRip.XviD.Ac3.Feel-Free
Format : AVI
Format/Info : Audio Video Interleave
File size : 830 MiB
Duration : 1h 25mn
Overall bit rate : 1 362 Kbps
Video #0
Codec ID : XVID
Codec ID/Hint : XviD
Duration : 1h 25mn
Bit rate : 904 Kbps
Width : 720 pixels
Height : 384 pixels
Display aspect ratio : 1.875
Frame rate : 25.000 fps
Resolution : 24 bits
Colorimetry : 4:2:0
Scan type : Progressive
Bits/(Pixel*Frame) : 0.131
Stream size : 551 MiB (66%)
Writing library : XviD 1.2.1 (UTC 2008-12-04)
Audio #1
ID : 1
Format : AC-3
Format/Info : Audio Coding 3
Codec ID : 2000
Duration : 1h 25mn
Bit rate mode : Constant
Bit rate : 448 Kbps
Channel(s) : 6 channels
Channel positions : Front: L C R, Surround: L R, LFE
Sampling rate : 48.0 KHz
Stream size : 273 MiB (33%)
Alignment : Split accross interleaves
Interleave, duration : 40 ms (1.00 video frame)
Interleave, preload duration : 500 ms

Plot:
Two sisters, no love lives. Both end up dating the same man, and inviting him to meet the family on December 17th. He doesn't know there are two sisters or that he committed to two different dates on the same day.


screens
 
http://img245.imageshack.us/img245/4332/doublewedding2010dvdrip.jpg 
http://img543.imageshack.us/img543/4332/doublewedding2010dvdrip.jpg 
http://img714.imageshack.us/img714/4332/doublewedding2010dvdrip.jpg 
http://img576.imageshack.us/img576/4332/doublewedding2010dvdrip.jpg
